<svg xmlns="http://www.w3.org/2000/svg" width="46" height="46" viewBox="0 0 58.1224 65.625">
  <title>Asset 18</title>
  <g id="Layer_2" data-name="Layer 2">
    <g id="Layer_1-2" data-name="Layer 1">
      <path d="M28.9266,7.141V1.0362A1.0341,1.0341,0,0,0,27.1613.3049l-14.887,14.887a1.0341,1.0341,0,0,0,0,1.4624l14.887,14.8869a1.0341,1.0341,0,0,0,1.7653-.7312V23.7556A12.629,12.629,0,1,1,16.9444,40.5113a1.6878,1.6878,0,0,0-1.464-1.1485,1.6427,1.6427,0,0,0-1.6458,2.1934A16.1312,16.1312,0,0,0,28.3867,52.2269c7.262.308,14.775-5.4309,16.39-12.5176A16.1167,16.1167,0,0,0,38.4306,22.934a1.8418,1.8418,0,0,1-.58-2.3758,1.7921,1.7921,0,0,1,2.6006-.5846A19.7447,19.7447,0,1,1,9.8406,40.7314a1.5207,1.5207,0,1,0-2.9548.72,22.6616,22.6616,0,0,0,4.1011,8.5356,1.8517,1.8517,0,0,1-.1887,2.5058,1.792,1.792,0,0,1-2.5967-.25A26.1957,26.1957,0,0,1,3.0653,40.71a1.5935,1.5935,0,0,0-1.3912-1.345A1.5327,1.5327,0,0,0,.02,41.1218,29.2447,29.2447,0,1,0,28.9266,7.141Zm3.3893,6.3966q-.8648-.1258-1.7229-.1839a1.7918,1.7918,0,0,1,.2481-3.575q.9915.0679,1.9916.2127A26.4777,26.4777,0,0,1,52.3212,23.7222a1.7922,1.7922,0,0,1-1.034,2.5479,1.876,1.876,0,0,1-2.1881-.9736A22.883,22.883,0,0,0,32.3159,13.5376ZM55.12,39.8823A26.3722,26.3722,0,0,1,13.1735,57.1491a1.792,1.792,0,0,1,2.1575-2.8618A22.7885,22.7885,0,0,0,51.5737,39.3656a1.7918,1.7918,0,1,1,3.5462.5167Z" fill="#18BAAA"/>
    </g>
  </g>
</svg>
