<svg viewBox="0 0 83 70" width="45px" height="45px" xmlns="http://www.w3.org/2000/svg" xmlns:xlink="http://www.w3.org/1999/xlink"><linearGradient id="a" gradientTransform="matrix(0 1 1 0 5904.19 -5964.69)" gradientUnits="userSpaceOnUse" x1="6006.9" x2="6031.02" y1="-5876.68" y2="-5852.56"><stop offset="0" stop-color="#7b1fa0"/><stop offset=".37" stop-color="#741b9b"/><stop offset=".92" stop-color="#60128c"/><stop offset="1" stop-color="#5c1089"/></linearGradient><linearGradient id="b" gradientUnits="userSpaceOnUse" x1="14.28" x2="82.49" y1="17.95" y2="17.95"><stop offset="0" stop-color="#ba47ce"/><stop offset="1" stop-color="#8d24a8"/></linearGradient><path d="m59 69.22h-48.74a9.75 9.75 0 0 1 -9.75-9.75v-24.36h68.21v24.36a9.75 9.75 0 0 1 -9.72 9.75z" fill="url(#a)"/><path d="m82.49 35.11v-16.48a9.68 9.68 0 0 0 -.86-4 8.16 8.16 0 0 0 -3.21-3.93 9.69 9.69 0 0 0 -5.67-1.83h-1.58v-6.74a1.35 1.35 0 0 0 -1.35-1.35h-8.42a1.35 1.35 0 0 0 -1.35 1.35v6.75h-6.05v-6.75a1.36 1.36 0 0 0 -1.4-1.35h-8.43a1.36 1.36 0 0 0 -1.35 1.35v6.75h-6.1v-6.75a1.35 1.35 0 0 0 -1.34-1.35h-8.38a1.35 1.35 0 0 0 -1.4 1.35v6.75h-1.6a9.67 9.67 0 0 0 -5.67 1.83 8.18 8.18 0 0 0 -3.22 3.93 9.68 9.68 0 0 0 -.86 4v16.47z" fill="url(#b)"/><path d="m68.72 35.11h-54.44l54.44 8.53z" fill="#430165"/></svg>
