<?xml version="1.0" encoding="utf-8"?>
<!-- Generator: Adobe Illustrator 24.0.2, SVG Export Plug-In . SVG Version: 6.00 Build 0)  -->
<svg version="1.1" id="Layer_1" xmlns="http://www.w3.org/2000/svg" xmlns:xlink="http://www.w3.org/1999/xlink" x="0px" y="0px"
	 width="72px" height="72px" viewBox="0 0 72 72" style="enable-background:new 0 0 72 72;" xml:space="preserve">
<style type="text/css">
	.st0{fill:#F2F2F2;}
	.st1{fill:#FCDF10;}
	.st2{fill:#FAB30C;}
	.st3{fill:#F78708;}
	.st4{fill:#F45A04;}
	.st5{fill:#F22E00;}
</style>
<circle className="st0" cx="36" cy="36" r="36"/>
<g>
	<path className="st1" d="M15.2,37c-0.7,0-1.3-0.6-1.3-1.3V25.4c-0.1-0.7,0.5-1.3,1.2-1.4c0.7-0.1,1.3,0.5,1.4,1.2c0,0.1,0,0.1,0,0.2
		v10.3C16.5,36.4,16,37,15.2,37z"/>
	<path className="st2" d="M20.4,37c-0.7,0-1.3-0.6-1.3-1.3V22.5c0.1-0.7,0.7-1.2,1.4-1.2c0.6,0.1,1.1,0.6,1.2,1.2v13.2
		C21.7,36.4,21.1,37,20.4,37z"/>
	<path className="st3" d="M25.6,37c-0.7,0-1.3-0.6-1.3-1.3V19.5c0-0.7,0.6-1.3,1.3-1.3c0.7,0,1.3,0.6,1.3,1.3v16.1
		C26.8,36.4,26.3,37,25.6,37z"/>
	<path className="st4" d="M30.7,37c-0.7,0-1.3-0.6-1.3-1.3c0,0,0,0,0,0V16.6c-0.1-0.7,0.5-1.3,1.2-1.4c0.7-0.1,1.3,0.5,1.4,1.2
		c0,0.1,0,0.1,0,0.2v19.1C32,36.4,31.4,37,30.7,37z"/>
	<path className="st5" d="M35.9,37c-0.7,0-1.3-0.6-1.3-1.3v-22c0.1-0.7,0.7-1.2,1.4-1.2c0.6,0.1,1.1,0.6,1.2,1.2v22
		C37.2,36.4,36.6,37,35.9,37z"/>
	<path className="st1" d="M56.5,37c-0.7,0-1.3-0.6-1.3-1.3V25.4c-0.1-0.7,0.5-1.3,1.2-1.4c0.7-0.1,1.3,0.5,1.4,1.2c0,0.1,0,0.1,0,0.2
		v10.3C57.7,36.4,57.2,37,56.5,37L56.5,37z"/>
	<path className="st2" d="M51.3,37c-0.7,0-1.3-0.6-1.3-1.3v0V22.5c0.1-0.7,0.7-1.2,1.4-1.2c0.6,0.1,1.1,0.6,1.2,1.2v13.2
		C52.6,36.4,52,37,51.3,37z"/>
	<path className="st3" d="M46.1,37c-0.7,0-1.2-0.6-1.2-1.3V19.5c0.1-0.7,0.7-1.2,1.4-1.2c0.6,0.1,1.1,0.6,1.2,1.2v16.1
		C47.5,36.4,46.9,37,46.1,37C46.2,37,46.1,37,46.1,37z"/>
	<path className="st4" d="M41,37c-0.7,0-1.3-0.6-1.3-1.3V16.6c-0.1-0.7,0.5-1.3,1.2-1.4c0.7-0.1,1.3,0.5,1.4,1.2c0,0.1,0,0.1,0,0.2v19.1
		C42.3,36.4,41.7,37,41,37z"/>
	<path className="st5" d="M35.8,37c-0.7,0-1.3-0.6-1.3-1.3v-22c0.1-0.7,0.7-1.2,1.4-1.2c0.6,0.1,1.1,0.6,1.2,1.2v22
		C37.1,36.4,36.5,37,35.8,37z"/>
	<path className="st1" d="M56.5,47.8c-0.7,0-1.3-0.6-1.3-1.3c0,0,0,0,0,0V36.2c0.1-0.7,0.7-1.2,1.4-1.2c0.6,0.1,1.1,0.6,1.2,1.2v10.3
		C57.8,47.2,57.2,47.8,56.5,47.8C56.5,47.8,56.5,47.8,56.5,47.8z"/>
	<path className="st2" d="M51.3,50.7c-0.7,0-1.3-0.6-1.3-1.3v0V36.2c0.1-0.7,0.7-1.2,1.4-1.2c0.6,0.1,1.1,0.6,1.2,1.2v13.2
		C52.6,50.1,52,50.7,51.3,50.7z"/>
	<path className="st3" d="M46.1,53.6c-0.7,0-1.2-0.6-1.2-1.3V36.2c0.1-0.7,0.7-1.2,1.4-1.2c0.6,0.1,1.1,0.6,1.2,1.2v16.1
		C47.5,53.1,46.9,53.6,46.1,53.6C46.2,53.6,46.1,53.6,46.1,53.6z"/>
	<path className="st4" d="M41,56.6c-0.7,0-1.3-0.6-1.3-1.3c0,0,0,0,0,0V36.2c0.1-0.7,0.7-1.2,1.4-1.2c0.6,0.1,1.1,0.6,1.2,1.2v19.1
		C42.3,56,41.7,56.6,41,56.6z"/>
	<path className="st5" d="M35.8,59.5c-0.7,0-1.3-0.6-1.3-1.3v-22c0.1-0.7,0.7-1.2,1.4-1.2c0.6,0.1,1.1,0.6,1.2,1.2v22
		C37.1,58.9,36.5,59.5,35.8,59.5L35.8,59.5z"/>
	<path className="st1" d="M15.2,47.8c-0.7,0-1.3-0.6-1.3-1.3c0,0,0,0,0,0V36.2c0.1-0.7,0.7-1.2,1.4-1.2c0.6,0.1,1.1,0.6,1.2,1.2v10.3
		C16.5,47.2,16,47.8,15.2,47.8C15.3,47.8,15.2,47.8,15.2,47.8z"/>
	<path className="st2" d="M20.4,50.7c-0.7,0-1.3-0.6-1.3-1.3l0,0V36.2c0.1-0.7,0.7-1.2,1.4-1.2c0.6,0.1,1.1,0.6,1.2,1.2v13.2
		C21.7,50.1,21.1,50.7,20.4,50.7z"/>
	<path className="st3" d="M25.6,53.6c-0.7,0-1.3-0.6-1.3-1.3c0,0,0,0,0,0V36.2c0-0.7,0.6-1.3,1.3-1.3c0.7,0,1.3,0.6,1.3,1.3v16.1
		C26.9,53.1,26.3,53.6,25.6,53.6C25.6,53.6,25.6,53.6,25.6,53.6z"/>
	<path className="st4" d="M30.7,56.6c-0.7,0-1.3-0.6-1.3-1.3c0,0,0,0,0,0V36.2c0.1-0.7,0.7-1.2,1.4-1.2c0.6,0.1,1.1,0.6,1.2,1.2v19.1
		C32,56,31.4,56.6,30.7,56.6z"/>
	<path className="st5" d="M35.9,59.5c-0.7,0-1.3-0.6-1.3-1.3v-22c0.1-0.7,0.7-1.2,1.4-1.2c0.6,0.1,1.1,0.6,1.2,1.2v22
		C37.2,58.9,36.6,59.5,35.9,59.5L35.9,59.5z"/>
	<path className="st0" d="M58.7,24.2c0.3,1.4,0.6,2.3-0.8,2.7l-24.3,6.7l14.9,5h0c0.5,0.1,0.8,0.6,0.7,1.2c-0.1,0.3-0.4,0.6-0.7,0.7
		L17.9,49l-0.5-1.1l25.3-8.2l-19.1-4.1c-0.9-0.1-1.5-0.9-1.4-1.8c0.1-0.7,0.6-1.2,1.2-1.4h0.1l31.6-10l2.8-1.1
		C59.3,20.9,58.3,22.9,58.7,24.2z"/>
</g>
</svg>
