<?xml version="1.0" encoding="utf-8"?>
<!-- Generator: Adobe Illustrator 24.3.0, SVG Export Plug-In . SVG Version: 6.00 Build 0)  -->
<svg version="1.1" id="Layer_10" xmlns="http://www.w3.org/2000/svg" xmlns:xlink="http://www.w3.org/1999/xlink" x="0px" y="0px"
	 viewBox="0 0 70 70" style="enable-background:new 0 0 70 70;" xml:space="preserve">
<style type="text/css">
	.st0{fill:#0A3394;}
	.st1{fill:#F9C432;}
</style>
<g>
	<g>
		<path className="st0" d="M57.04,49.98c-6.89,3.65-33.09-4.22-43.54-0.3l0.46-28.61c13.29-3.7,27.33,5.02,43.54,0.3L57.04,49.98z"/>
	</g>
	<g>
		<polygon className="st1" points="34.29,26.79 34.5,25.67 33.46,24.88 34.69,24.87 34.96,23.66 35.39,24.85 36.75,24.83 35.76,25.63 
			36.31,26.77 35.19,26.07 		"/>
		<polygon className="st1" points="29.2,28.14 29.41,27.01 28.37,26.23 29.6,26.22 29.87,25.01 30.3,26.19 31.66,26.17 30.67,26.97 
			31.22,28.11 30.1,27.41 		"/>
		<polygon className="st1" points="25.66,31.79 25.87,30.67 24.83,29.88 26.06,29.87 26.33,28.66 26.76,29.85 28.11,29.83 27.12,30.63 
			27.68,31.77 26.56,31.07 		"/>
		<polygon className="st1" points="43.67,32.01 43.89,30.88 42.85,30.1 44.08,30.09 44.35,28.88 44.78,30.06 46.13,30.05 45.14,30.84 
			45.69,31.98 44.57,31.28 		"/>
		<polygon className="st1" points="26.46,42.27 26.67,41.14 25.64,40.36 26.86,40.35 27.13,39.14 27.56,40.33 28.92,40.31 27.93,41.11 
			28.48,42.25 27.36,41.54 		"/>
		<polygon className="st1" points="44.48,42.49 44.69,41.36 43.65,40.58 44.88,40.57 45.15,39.36 45.58,40.54 46.94,40.52 45.95,41.32 
			46.5,42.46 45.38,41.76 		"/>
		<polygon className="st1" points="24.76,37.03 24.97,35.91 23.93,35.13 25.16,35.11 25.43,33.91 25.86,35.09 27.22,35.07 26.23,35.87 
			26.78,37.01 25.66,36.31 		"/>
		<polygon className="st1" points="45.49,37.28 45.7,36.16 44.66,35.37 45.89,35.36 46.16,34.15 46.59,35.34 47.95,35.32 46.96,36.12 
			47.51,37.26 46.39,36.56 		"/>
		<polygon className="st1" points="39.6,28.26 39.81,27.13 38.77,26.35 40,26.34 40.27,25.13 40.7,26.32 42.06,26.3 41.07,27.1 
			41.62,28.24 40.5,27.53 		"/>
		<polygon className="st1" points="30.58,46.13 30.79,45 29.75,44.22 30.98,44.21 31.25,43 31.68,44.19 33.04,44.17 32.05,44.96 
			32.6,46.11 31.48,45.4 		"/>
		<polygon className="st1" points="40.98,46.25 41.19,45.13 40.16,44.35 41.38,44.33 41.65,43.12 42.09,44.31 43.44,44.29 42.45,45.09 
			43,46.23 41.88,45.53 		"/>
		<polygon className="st1" points="35.88,47.52 36.09,46.4 35.05,45.62 36.28,45.6 36.55,44.4 36.98,45.58 38.34,45.56 37.35,46.36 
			37.9,47.5 36.78,46.8 		"/>
	</g>
</g>
</svg>
